<svg width="83" height="83" viewBox="0 0 83 83" fill="none" xmlns="http://www.w3.org/2000/svg">
<path fill-rule="evenodd" clip-rule="evenodd" d="M10.8319 13.9961C4.96077 20.708 1.43864 29.1514 0.799683 38.0459H6.15204C6.80312 30.5844 9.79539 23.5195 14.7015 17.8602L10.8319 13.9961Z" fill="#2C2C2C"/>
<path fill-rule="evenodd" clip-rule="evenodd" d="M18.5656 21.7168C14.6641 26.3387 12.244 32.0278 11.6202 38.044L34.8872 38.0385L18.5656 21.7168Z" fill="#2C2C2C"/>
<path fill-rule="evenodd" clip-rule="evenodd" d="M38.9772 0C30.0958 0.607562 21.6537 4.09044 14.9274 9.92198L18.8025 13.7971C24.4994 9.00075 31.5534 6.10588 38.9772 5.51772V0Z" fill="#2C2C2C"/>
<path fill-rule="evenodd" clip-rule="evenodd" d="M38.9773 10.9634C32.9989 11.5355 27.3245 13.8682 22.6722 17.6662L38.9773 33.9713V10.9634Z" fill="#2C2C2C"/>
<path fill-rule="evenodd" clip-rule="evenodd" d="M11.5986 44.0435C12.135 50.0632 14.4944 55.7763 18.3621 60.4202L34.8877 44.049L11.5986 44.0435Z" fill="#2C2C2C"/>
<path fill-rule="evenodd" clip-rule="evenodd" d="M0.788849 44.0435C1.37043 52.903 4.8579 61.3233 10.7108 67.9995L14.4977 64.2512C9.62096 58.5819 6.6868 51.5005 6.12467 44.0435H0.788849Z" fill="#2C2C2C"/>
<path fill-rule="evenodd" clip-rule="evenodd" d="M22.4299 64.4377C27.1237 68.3541 32.892 70.7598 38.9776 71.3389V47.8955L22.4299 64.4377Z" fill="#2C2C2C"/>
<path fill-rule="evenodd" clip-rule="evenodd" d="M14.7841 72.0833C21.5299 77.9926 30.0297 81.5231 38.9771 82.132V76.7852C31.4511 76.1811 24.3096 73.2095 18.5765 68.2964L14.7841 72.0833Z" fill="#2C2C2C"/>
<path fill-rule="evenodd" clip-rule="evenodd" d="M73.01 68.0034C78.8604 61.3251 82.3491 52.9063 82.9375 44.0474H77.6899C77.1238 51.5238 74.1756 58.6218 69.2783 64.2992L73.01 68.0034Z" fill="#2C2C2C"/>
<path fill-rule="evenodd" clip-rule="evenodd" d="M48.8276 44.0474L65.4139 60.4737C69.3047 55.8209 71.6784 50.0888 72.2159 44.0474H48.8276Z" fill="#2C2C2C"/>
<path fill-rule="evenodd" clip-rule="evenodd" d="M72.1883 38.0407C71.5636 32.0054 69.1313 26.2994 65.2098 21.6694L48.8331 38.0407H72.1883Z" fill="#2C2C2C"/>
<path fill-rule="evenodd" clip-rule="evenodd" d="M82.9206 38.0403C82.2813 29.1476 78.7591 20.7061 72.8884 13.9961L69.0685 17.8161C74.0019 23.4777 77.0109 30.5591 77.662 38.0403H82.9206Z" fill="#2C2C2C"/>
<path fill-rule="evenodd" clip-rule="evenodd" d="M44.7486 82.1322C53.6899 81.52 62.1842 77.9941 68.9307 72.0945L65.1824 68.3462C59.4331 73.2471 52.2804 76.2031 44.7486 76.7909V82.1322Z" fill="#2C2C2C"/>
<path fill-rule="evenodd" clip-rule="evenodd" d="M44.7486 71.3493C50.8398 70.7849 56.6188 68.3949 61.3294 64.4921L44.7486 47.9004V71.3493Z" fill="#2C2C2C"/>
</svg>
