<svg width="91" height="91" viewBox="0 0 91 91" fill="none" xmlns="http://www.w3.org/2000/svg">
<path d="M24.0981 8.50019V19.5744L21.8659 21.787H37.4845V6.2876L35.2536 8.50019H24.0981Z" fill="black"/>
<path d="M62.6503 21.7868C62.6194 21.6171 62.576 21.4503 62.5577 21.2806C61.6375 21.4202 60.6972 21.338 59.8151 21.041C58.933 20.7439 58.1346 20.2406 57.4862 19.5728C56.7106 18.7761 56.1765 17.7762 55.9455 16.6886C55.7144 15.601 55.796 14.4703 56.1808 13.4272C55.8952 13.3968 55.6122 13.3462 55.3339 13.2757C54.5209 13.0737 53.7607 12.6998 53.1044 12.1793C52.3626 11.5992 51.7735 10.8469 51.3882 9.9877C51.1724 9.48541 51.028 8.9554 50.9592 8.41309L50.8708 8.50002H39.7139V19.5728L37.4831 21.7868H62.6503Z" fill="black"/>
<path d="M24.0981 24.003V35.0744L21.8659 37.2898H37.4845V21.7876L35.2536 24.003H24.0981Z" fill="black"/>
<path d="M39.7154 24.003V35.0744L37.4846 37.2898H53.1045V21.7876L50.8723 24.003H39.7154Z" fill="black"/>
<path d="M72.4092 45.7498C72.0661 45.5026 71.7048 45.2818 71.3282 45.0894V26.4016H68.7216C67.9653 26.4498 67.2069 26.3493 66.4894 26.1057C65.3341 25.7224 64.328 24.9869 63.6122 24.0025H55.3339V35.0738L53.1044 37.2892H68.7216L66.4894 39.5032H55.3339V43.7419C54.5991 43.8176 53.8546 43.9032 53.1044 43.9985V37.2892L50.8722 39.5032H39.7153V46.4046C38.9638 46.5729 38.2192 46.7439 37.4845 46.9164V37.2892L35.2537 39.5032H24.0982V50.4765C23.2597 50.7246 22.5081 50.9504 21.866 51.1481V6.28772H50.854V3.65869H19.2594V87.7877H71.3268V61.552C74.0974 55.1428 78.2057 50.0362 72.4092 45.7498ZM70.3411 57.1198C68.3108 61.3039 65.6495 66.7877 66.9605 73.1843C59.4716 72.9571 56.4542 68.9358 52.66 63.881C48.9274 58.9104 44.5093 53.0256 35.0588 50.3923C43.4703 48.2877 53.8364 46.1901 61.7333 46.1901C67.175 46.1901 69.6596 47.1842 70.7855 48.0171C73.4398 49.9787 73.071 51.493 70.3411 57.1198ZM21.866 85.1586V52.0441C22.3343 52.0693 22.7732 52.1114 23.2232 52.1492C25.9252 52.5194 32.1648 53.6691 37.2784 56.7987C39.7307 58.522 41.6601 60.5719 43.3301 62.7439C44.1022 63.9548 44.9347 65.1261 45.8245 66.2534C50.5553 73.3525 54.2794 80.4376 66.1122 80.4376C65.0634 79.1588 64.3763 77.5281 63.9417 75.6997C65.0718 75.8918 66.2931 75.9984 67.6377 75.9984C67.9869 75.9984 68.3542 75.983 68.7188 75.9689V85.1586H21.866Z" fill="black"/>
</svg>
