<svg width="94" height="94" viewBox="0 0 94 94" fill="none" xmlns="http://www.w3.org/2000/svg">
<path d="M90.54 66.8365C90.4228 32.7531 61.4708 3.86329 27.3166 3.75479L25.2102 3.74756L24.7039 5.79314L4.81518 86.2275L3.74754 90.5473L8.06583 89.471L88.5075 69.4477L90.5473 68.9385L90.54 66.8365ZM50.346 76.1848C49.1192 72.8994 46.3561 70.1349 42.2027 71.188C38.7727 72.056 36.4609 76.0503 37.3824 79.4109L7.41917 86.8699L24.9035 16.1541C52.1152 20.2829 73.9917 42.1535 78.1291 69.2683L50.346 76.1848Z" fill="#111"/>
<path d="M22.4442 59.592C23.5377 59.5959 24.6212 59.3832 25.632 58.966C26.6429 58.5489 27.5611 57.9356 28.3336 57.1616C29.1071 56.391 29.7205 55.4749 30.1384 54.4661C30.5563 53.4573 30.7704 52.3758 30.7683 51.2838C30.7703 50.1926 30.5561 49.1118 30.1382 48.1037C29.7204 47.0956 29.107 46.1802 28.3336 45.4104C27.7101 44.7898 26.6149 44.7869 25.9943 45.4104C25.6856 45.7203 25.5124 46.14 25.5126 46.5774C25.5129 47.0149 25.6867 47.4343 25.9958 47.7439C26.9404 48.6856 27.4627 49.9471 27.4627 51.2853C27.4627 52.6235 26.9448 53.8835 25.9987 54.8253C24.1006 56.7146 20.7878 56.7146 18.897 54.8282C18.5831 54.5255 18.1641 54.3564 17.7281 54.3564C17.2921 54.3564 16.8731 54.5255 16.5592 54.8282C16.4061 54.9812 16.2846 55.1629 16.2018 55.3629C16.119 55.5629 16.0764 55.7773 16.0766 55.9938C16.0767 56.2102 16.1195 56.4246 16.2026 56.6245C16.2856 56.8244 16.4073 57.0059 16.5606 57.1587C17.3318 57.9331 18.2489 58.5469 19.2588 58.9646C20.2687 59.3822 21.3514 59.5955 22.4442 59.592Z" fill="white"/>
<path d="M46.4545 37.2841C46.211 38.3113 46.2046 39.3804 46.4357 40.4104C46.7308 41.7177 47.3876 42.9158 48.331 43.8679C49.2743 44.8199 50.4663 45.4877 51.7709 45.7948C52.1576 45.8834 52.5636 45.8153 52.9002 45.6055C53.2369 45.3957 53.4768 45.0612 53.5677 44.6751C53.6446 44.2899 53.5714 43.8898 53.363 43.5569C53.1545 43.2239 52.8267 42.9832 52.4465 42.8842C50.3185 42.3908 48.866 40.1051 49.3695 37.9583C49.6176 36.8971 50.2768 35.9778 51.2024 35.4024C52.128 34.827 53.2441 34.6427 54.3055 34.8899C54.6947 34.9796 55.0983 34.9145 55.4353 34.7018C55.7739 34.4906 56.0126 34.1593 56.0994 33.7687C56.15 33.5517 56.1529 33.3275 56.1052 33.1091C56.0425 32.8346 55.9043 32.5832 55.7062 32.3832C55.508 32.1833 55.2579 32.0428 54.984 31.9778C54.0749 31.7639 53.1324 31.7329 52.2112 31.8866C51.2901 32.0404 50.4087 32.3757 49.6183 32.8732C48.8245 33.3616 48.136 34.0032 47.5927 34.7605C47.0495 35.5178 46.6626 36.3757 46.4545 37.2841Z" fill="white"/>
<path d="M59.6509 62.7125C58.6844 62.4503 57.6712 62.4092 56.6867 62.5925C55.4397 62.8244 54.283 63.4024 53.3488 64.2604C52.4146 65.1184 51.7405 66.2218 51.4035 67.4446C51.3556 67.6239 51.3435 67.8109 51.3679 67.9949C51.3923 68.1789 51.4527 68.3564 51.5457 68.517C51.6386 68.6777 51.7623 68.8185 51.9097 68.9313C52.0571 69.0442 52.2252 69.1269 52.4046 69.1748C52.7665 69.2626 53.1484 69.2082 53.4714 69.0227C53.7944 68.8373 54.034 68.5349 54.1406 68.178C54.6802 66.1874 56.895 64.897 58.9088 65.4438C59.4029 65.5752 59.866 65.8033 60.2713 66.1149C60.6765 66.4266 61.0159 66.8156 61.2697 67.2594C61.7862 68.1592 61.9251 69.2052 61.6545 70.2048C61.5916 70.4358 61.5884 70.679 61.6455 70.9116C61.7025 71.1441 61.8177 71.3583 61.9804 71.534C62.143 71.7097 62.3477 71.841 62.5752 71.9158C62.8027 71.9905 63.0454 72.0061 63.2806 71.961C63.5433 71.9122 63.787 71.7906 63.9839 71.61C64.1809 71.4294 64.3231 71.1972 64.3945 70.9397C64.6259 70.0889 64.6863 69.2007 64.5723 68.3264C64.4584 67.4521 64.1722 66.6091 63.7305 65.846C63.2905 65.0806 62.7036 64.4098 62.0035 63.872C61.3034 63.3343 60.5038 62.9402 59.6509 62.7125Z" fill="white"/>
<path d="M54.1637 52.28C52.2874 46.7885 46.2635 43.83 40.6924 45.6716C35.1242 47.5161 32.1238 53.4662 33.9944 58.952C35.8663 64.4522 41.8931 67.4048 47.4686 65.5603C53.0281 63.7202 56.0285 57.7701 54.1637 52.28Z" fill="#111"/>
<path d="M58.7207 57.3122C59.8448 60.6092 63.4672 62.3871 66.822 61.279C70.1638 60.1679 71.962 56.5976 70.8452 53.2977C69.7182 50.0008 66.0929 48.2229 62.7525 49.3252C59.405 50.4362 57.6024 54.008 58.7207 57.3122Z" fill="#111"/>
<path d="M26.8001 34.7003C28.3364 39.1951 33.2667 41.6124 37.8237 40.1007C42.3705 38.5933 44.8269 33.7252 43.3007 29.2363C41.7629 24.7502 36.837 22.3328 32.28 23.8388C27.7346 25.3433 25.2782 30.2113 26.8001 34.7003Z" fill="#111"/>
<path d="M30.6685 66.7962C29.0829 62.1727 24.0051 59.6801 19.3151 61.2237C14.6366 62.7817 12.1092 67.7886 13.6789 72.4093C15.2514 77.0473 20.3248 79.5312 25.0279 77.9775C29.7093 76.4223 32.2352 71.4154 30.6685 66.7962Z" fill="#111"/>
</svg>
