<svg width="87" height="88" viewBox="0 0 87 88" fill="none" xmlns="http://www.w3.org/2000/svg">
<path d="M77.7913 12.0701C74.8686 4.87449 66.5655 1.36888 59.2425 4.23871C53.6573 6.43074 50.2656 11.7 50.2629 17.2675H37.7641L33.1184 12.7032C29.6657 9.3087 24.0629 9.30735 20.6088 12.7032L8.31885 24.7763L10.195 26.6199L22.485 14.5454C24.9034 12.169 28.8239 12.1704 31.2423 14.5454L34.0118 17.2675H30.8654C37.207 32.0057 17.9274 58.6991 40.3561 63.1848C40.3411 63.1916 40.3235 63.1984 40.3371 63.2038C47.1924 65.5789 46.8264 71.244 44.5883 76.577C42.2173 82.2258 36.5387 83.2561 36.4858 83.2886C36.3177 83.3862 36.2187 83.6953 36.2431 84.0166C36.2743 84.3365 36.4194 84.5737 36.5942 84.5737H59.1055C59.2791 84.5737 59.4268 84.3365 59.4539 84.0166C59.4824 83.6953 59.378 83.3862 59.2113 83.2886C59.1571 83.2561 53.4825 82.2258 51.1101 76.577C48.872 71.2426 48.5074 65.5789 55.36 63.2038C55.3763 63.1984 55.3559 63.1916 55.341 63.1848C71.6626 59.9219 65.9026 44.899 63.9966 31.2791C65.9858 31.3565 67.9696 31.0214 69.823 30.295C77.1447 27.4265 80.7113 19.2657 77.7913 12.0701ZM47.8499 61.4375C19.504 61.4375 39.4234 32.9872 33.6037 18.5228H35.2901L46.5661 29.6009C43.8495 28.7848 40.9946 28.1192 37.8753 28.1192C37.4103 28.1192 36.9426 28.1341 36.4641 28.1653C36.3651 33.2976 34.9255 39.1363 34.413 44.3594C33.6078 52.5921 35.1153 59.2997 47.8485 59.2997C58.4494 59.2997 61.2677 54.6485 61.4521 48.3422C61.589 43.6057 60.2416 37.9352 59.58 32.5914C59.3889 32.5995 59.2004 32.6022 59.0093 32.6022C56.6953 32.6022 54.4233 32.0627 52.1079 31.3618L39.0384 18.5215H50.3144C50.4364 19.8418 50.7441 21.1663 51.2701 22.4609C53.0744 26.9086 56.9366 29.9411 61.3518 30.9362C63.11 45.1349 69.3065 61.4375 47.8499 61.4375ZM58.3979 41.228L58.7504 40.8823C59.0486 42.852 59.2926 44.7485 59.3685 46.5149C59.2506 46.5176 59.1299 46.5203 59.0079 46.5203C56.1557 46.5203 53.2222 45.5619 50.1165 44.5465C46.5282 43.3753 42.46 42.0454 37.878 42.0454C37.5093 42.0454 37.1419 42.0535 36.7718 42.0712C36.9494 40.801 37.1609 39.4996 37.3791 38.148C37.8075 35.5005 38.2481 32.7812 38.4392 30.1594C42.1319 30.2638 45.525 31.374 48.8083 32.449C49.135 32.5561 49.4576 32.6564 49.783 32.7608L58.3979 41.228ZM54.9953 34.1964C55.909 34.3794 56.8281 34.5285 57.7648 34.5936C57.9004 35.5154 58.0482 36.4291 58.1946 37.3401L54.9953 34.1964ZM58.7124 28.1219C59.0811 28.0745 59.3279 27.7545 59.599 27.741C59.6735 27.7369 60.2632 26.5535 60.9736 25.042C60.9695 25.3578 60.9654 25.6737 60.9709 25.995C60.4842 27.1581 60.1155 28.0907 60.0626 28.3835C60.0179 28.652 60.3866 28.8078 60.4734 29.0668C60.5127 29.1874 60.7797 29.285 61.1796 29.3637L61.2474 30.0035C57.2389 29.0017 53.7536 26.2064 52.1024 22.1409C51.6351 20.9838 51.3374 19.7651 51.2186 18.5228H52.017C52.0564 19.7686 52.1662 20.7813 52.3397 20.9114C52.6325 21.131 53.0419 21.0754 53.2412 21.2517C53.3469 21.3425 58.0007 19.6588 60.8028 18.5228H61.5009C58.8846 19.5219 54.1101 21.3723 53.4906 21.7925C53.2642 21.9512 53.412 22.3158 53.2859 22.5558C52.9443 23.1956 58.1146 28.1938 58.7124 28.1219ZM69.4882 29.4789C67.7037 30.1772 65.7911 30.4882 63.8773 30.3912C63.8434 30.1228 63.8122 29.8544 63.7811 29.5873C65.8511 29.647 68.161 29.529 68.3644 29.2742C68.5948 28.9881 68.5352 28.5937 68.7168 28.3985C68.8565 28.2493 65.1109 18.718 64.8818 19.0501C64.6852 19.3335 64.4046 19.1559 64.2216 19.0298C64.3938 18.4279 64.589 17.8369 64.833 17.2675H62.7196C62.725 17.0547 62.9514 16.8337 62.9785 16.7483C62.9785 16.7483 54.2836 13.0258 53.252 12.8523C52.9768 12.8035 52.8169 13.1627 52.5512 13.2441C52.1838 13.3606 52.013 15.3453 51.9994 17.2675H51.1562C51.1589 12.0457 54.3379 7.10854 59.5732 5.05479C66.4367 2.3639 74.2247 5.64855 76.9617 12.3954C79.6987 19.1396 76.3544 26.7907 69.4882 29.4789Z" fill="black"/>
<path d="M68.6708 5.4797C68.4444 4.79241 61.1445 4.80732 60.7757 5.26958C60.5493 5.55562 60.6076 5.95281 60.426 6.14666C60.2864 6.29714 64.036 15.8285 64.2624 15.4963C64.5213 15.1195 64.9388 15.5641 65.0635 15.6021C65.0635 15.6021 68.8972 7.16202 69.0775 6.15886C69.1249 5.89316 68.7562 5.73591 68.6708 5.4797Z" fill="black"/>
<path d="M76.7596 13.5431C76.4655 13.3207 76.0588 13.3763 75.8541 13.2014C75.7023 13.0659 65.8863 16.7057 66.2265 16.924C66.6156 17.1775 66.156 17.5814 66.114 17.7034C66.114 17.7034 74.813 21.4246 75.8419 21.6022C76.1198 21.6483 76.2797 21.289 76.5441 21.205C77.2504 20.9867 77.2368 13.8982 76.7596 13.5431Z" fill="black"/>
<path d="M59.191 6.34718C58.5322 6.01641 53.3795 11.0362 53.4554 11.6165C53.5042 11.9757 53.8296 12.2156 53.8472 12.4786C53.8607 12.6806 63.4476 16.8478 63.3677 16.456C63.2782 16.01 63.8977 16.0425 64.0143 15.9829C64.0143 15.9829 60.5765 7.38016 59.9759 6.54781C59.8119 6.32414 59.4364 6.46783 59.191 6.34718Z" fill="black"/>
<path d="M66.0219 18.2292C66.1128 18.6752 65.4919 18.6468 65.3753 18.7064C65.3753 18.7064 68.8145 27.3051 69.4164 28.1401C69.5764 28.3597 69.9519 28.2174 70.1959 28.3381C70.8561 28.6675 76.0074 23.6463 75.9315 23.0674C75.8867 22.7095 75.5546 22.471 75.5411 22.2053C75.5302 22.006 65.9433 17.8402 66.0219 18.2292Z" fill="black"/>
<path d="M65.4538 15.9053C65.9147 15.8145 65.8849 16.4177 65.9445 16.5316C65.9445 16.5316 74.8007 13.1941 75.6616 12.6084C75.8879 12.4539 75.7402 12.0852 75.8649 11.8466C76.2052 11.2067 71.0349 6.20724 70.4384 6.27909C70.0697 6.32518 69.8216 6.64646 69.5505 6.66273C69.3471 6.67357 65.0566 15.9812 65.4538 15.9053Z" fill="black"/>
</svg>
